<?xml version="1.0" encoding="UTF-8"?>
<svg width="31px" height="25px" viewBox="0 0 31 25" version="1.1" xmlns="http://www.w3.org/2000/svg" xmlns:xlink="http://www.w3.org/1999/xlink">
    <title>Group 4</title>
    <g id="Page-1" stroke="none" stroke-width="1" fill="none" fill-rule="evenodd">
        <g id="Desktop-HD" transform="translate(-178.000000, -81.000000)" fill="#FFFFFF">
            <g id="Group-4" transform="translate(178.000000, 81.000000)">
                <path d="M9.77526643,0 L0,25 L7.56054646,25 L9.25370145,20.4508149 L18.5059724,20.4508149 L20.1313211,25 L28,25 L18.2616408,0.182637845 L18.1901152,0 L9.77526643,0 Z M10.1649381,0.577967865 L17.8013018,0.577967865 L27.1580001,24.4220321 L20.5332952,24.4220321 L18.9076604,19.8725581 L8.8574494,19.8725581 L7.1642944,24.4220321 L0.841141549,24.4220321 L10.1649381,0.577967865 Z" id="Fill-1"></path>
                <path d="M11.762227,14.4365205 L14.0457442,7.95847861 L16.2477919,14.4365205 L11.762227,14.4365205 Z M13.8200554,7 L11,15 L17,15 L14.2811882,7 L13.8200554,7 Z" id="Fill-2"></path>
                <path d="M12.7755525,0 L3,25 L10.5608326,25 L12.2539876,20.4508149 L21.5056863,20.4508149 L23.1313211,25 L31,25 L21.2616408,0.182637845 L21.1901152,0 L12.7755525,0 Z M16.9452114,7.79013987 L19.33474,14.4341695 L14.467277,14.4341695 L16.9452114,7.79013987 Z" id="Fill-3"></path>
            </g>
        </g>
    </g>
</svg>